<svg xmlns="http://www.w3.org/2000/svg" viewBox="0 0 158.85 27.13">
    <defs>
        <style>.cls-1{fill:#231f20;}</style>
    </defs>
    <g id="Layer_2" data-name="Layer 2">
        <g id="Layer_1-2" data-name="Layer 1">

            <path class="cls-1"
                d="M1,23.29V20H2.19a2.82,2.82,0,0,0,2-.74,2.58,2.58,0,0,0,.76-2V3.4H8.65V17.13a6.39,6.39,0,0,1-.79,3.23,5.49,5.49,0,0,1-2.24,2.16,7.15,7.15,0,0,1-3.43.77Z"
                transform="translate(-1.01 -2.04)" />
            <path class="cls-1"
                d="M17.3,23.61a5.54,5.54,0,0,1-2.94-.74,5,5,0,0,1-1.89-2.08,6.87,6.87,0,0,1-.67-3.13V8.77h3.53v8.6A3.39,3.39,0,0,0,15.69,19a2.53,2.53,0,0,0,1,1.06,3,3,0,0,0,1.53.39A2.94,2.94,0,0,0,19.78,20a2.6,2.6,0,0,0,1-1.08,3.53,3.53,0,0,0,.37-1.65V8.77h3.5V23.29H21.39V20.44l.26.51A3.82,3.82,0,0,1,20,23,5.35,5.35,0,0,1,17.3,23.61Z"
                transform="translate(-1.01 -2.04)" />
            <path class="cls-1"
                d="M33.48,23.61a7.26,7.26,0,0,1-4-1.1,5.73,5.73,0,0,1-2.39-3l2.64-1.25a4.52,4.52,0,0,0,1.56,1.92,3.85,3.85,0,0,0,2.23.7,2.47,2.47,0,0,0,1.5-.43,1.36,1.36,0,0,,.56-1.12,1.1,1.1,0,0,0-.23-.71,1.82,1.82,0,0,0-.6-.48,4.53,4.53,0,0,0-.86-.34l-2.37-.66a5.52,5.52,0,0,1-2.77-1.62,3.87,3.87,0,0,1-.94-2.6,4,4,0,0,1,.68-2.34A4.5,4.5,0,0,1,30.34,9a7.18,7.18,0,0,1,6.42.43A5.46,5.46,0,0,1,39,12.21l-2.67,1.26a3.13,3.13,0,0,0-1.26-1.56,3.55,3.55,0,0,0-2-.58,2.23,2.23,0,0,0-1.39.39,1.26,1.26,0,0,0-.51,1.06,1.08,1.08,0,0,0,.21.66,1.6,1.6,0,0,0,.6.48,6.52,6.52,0,0,0,.9.35l2.32.69A6,6,0,0,1,38,16.57a3.72,3.72,0,0,1,1,2.61,3.94,3.94,0,0,1-.69,2.31,4.61,4.61,0,0,1-1.93,1.56A6.79,6.79,0,0,1,33.48,23.61Z"
                transform="translate(-1.01 -2.04)" />
            <path class="cls-1"
                d="M48.3,23.45a5.19,5.19,0,0,1-3.82-1.34,5.12,5.12,0,0,1-1.36-3.81V11.89H40.64V8.77h.26a2.26,2.26,0,0,0,1.64-.56,2.15,2.15,0,0,0,.58-1.63V5.46h3.52V8.77H50v3.12H46.64v6.23a2.65,2.65,0,0,0,.26,1.22,1.64,1.64,0,0,0,.8.78,3.15,3.15,0,0,0,1.4.26,3.63,3.63,0,0,0,.44,0L50,20.3v3c-.25,0-.53.08-.85.11A7.08,7.08,0,0,1,48.3,23.45Z"
                transform="translate(-1.01 -2.04)" />
            <path class="cls-1"
                d="M53,23.29V3.4h6.51A11.41,11.41,0,0,1,65,4.67a9.13,9.13,0,0,1,3.62,3.51,10.29,10.29,0,0,1,1.28,5.16,10.29,10.29,0,0,1-1.28,5.16A9,9,0,0,1,65,22a11.41,11.41,0,0,1-5.49,1.26Zm3.66-3.2h2.93a7,7,0,0,0,3.52-.84,5.91,5.91,0,0,0,2.3-2.35,7.18,7.18,0,0,0,.83-3.56,7.25,7.25,0,0,0-.83-3.57,5.86,5.86,0,0,0-2.3-2.33,7,7,0,0,0-3.52-.83H56.63Z"
                transform="translate(-1.01 -2.04)" />
            <path class="cls-1"
                d="M79.35,23.61a7.48,7.48,0,0,1-3.94-1,7,7,0,0,1-2.63-2.75A8,8,0,0,1,71.85,16a7.76,7.76,0,0,1,1-3.89A7.24,7.24,0,0,1,75.4,9.44a6.92,6.92,0,0,1,3.68-1,7.54,7.54,0,0,1,3,.56,6.35,6.35,0,0,1,2.21,1.55,7,7,0,0,1,1.39,2.26,7.61,7.61,0,0,1,.48,2.73c0,.27,0,.53,0,.79a3.71,3.71,0,0,1-.15.71H74.76v-2.7H84l-1.68,1.26a3.82,3.82,0,0,0-.09-2.19A3.15,3.15,0,0,0,81,11.89a3.38,3.38,0,0,0-2-.56,3.51,3.51,0,0,0-2,.56,3.47,3.47,0,0,0-1.29,1.61A5.39,5.39,0,0,0,75.5,16a4.79,4.79,0,0,0,.36,2.37A3.51,3.51,0,0,0,77.25,20a4,4,0,0,0,2.12.56,3.87,3.87,0,0,0,2-.5,3.66,3.66,0,0,0,1.32-1.36l2.83,1.38a5,5,0,0,1-1.34,1.85,6.56,6.56,0,0,1-2.16,1.25A8,8,0,0,1,79.35,23.61Z"
                transform="translate(-1.01 -2.04)" />
            <path class="cls-1"
                d="M94.33,23.61a7.31,7.31,0,0,1-4-1.1,5.77,5.77,0,0,1-2.39-3l2.65-1.25a4.52,4.52,0,0,0,1.56,1.92,3.83,3.83,0,0,0,2.23.7,2.42,2.42,0,0,0,1.49-.43,1.33,1.33,0,0,0,.56-1.12,1.1,1.1,0,0,0-.22-.71,2,2,0,0,0-.61-.48,4.43,4.43,0,0,0-.85-.34l-2.38-.66a5.44,5.44,0,0,1-2.76-1.62,3.88,3.88,0,0,1-1-2.6,4.1,4.1,0,0,1,.68-2.34A4.6,4.6,0,0,1,91.19,9a7.18,7.18,0,0,1,6.42.43,5.39,5.39,0,0,1,2.24,2.77l-2.67,1.26a3.11,3.11,0,0,0-1.25-1.56,3.59,3.59,0,0,0-2-.58,2.25,2.25,0,0,0-1.39.39,1.28,1.28,0,0,0-.5,1.06,1.08,1.08,0,0,0,.21.66,1.46,1.46,0,0,0,.6.48,6.52,6.52,0,0,0,.9.35l2.32.69a6,6,0,0,1,2.76,1.61,3.73,3.73,0,0,1,1,2.61,4,4,0,0,1-.7,2.31,4.52,4.52,0,0,1-1.92,1.56A6.79,6.79,0,0,1,94.33,23.61Z"
                transform="translate(-1.01 -2.04)" />
            <path class="cls-1" d="M102.5,7.14V3.4H106V7.14Zm0,16.15V8.77H106V23.29Z"
                transform="translate(-1.01 -2.04)" />
            <path class="cls-1"
                d="M116.3,29.17a8.27,8.27,0,0,1-3-.54,7.19,7.19,0,0,1-2.39-1.48,5.6,5.6,0,0,1-1.45-2.23l3.26-1.23A3,3,0,0,0,114,25.34a4.09,4.09,0,0,0,2.31.62,4.23,4.23,0,0,0,1.89-.4,3,3,0,0,0,1.28-1.16,3.41,3.41,0,0,0,.46-1.83V19.26l.64.8a4.9,4.9,0,0,1-2,2,6,6,0,0,1-2.87.67,7,7,0,0,1-3.61-.94,6.66,6.66,0,0,1-2.52-2.56,7.24,7.24,0,0,1-.92-3.66,7.16,7.16,0,0,1,.92-3.66,6.84,6.84,0,0,1,2.49-2.52,7,7,0,0,1,3.58-.92,5.84,5.84,0,0,1,2.86.68,5.72,5.72,0,0,1,2.05,2l-.45.88V8.77h3.31v13.8a6.33,6.33,0,0,1-.92,3.39A6.46,6.46,0,0,1,120,28.31,7.62,7.62,0,0,1,116.3,29.17Zm-.16-9.69a3.78,3.78,0,0,0,2-.5,3.48,3.48,0,0,0,1.32-1.37,4.2,4.2,0,0,0,.48-2,4,4,0,0,0-.49-2,3.62,3.62,0,0,0-3.27-1.9,3.89,3.89,0,0,0-2,.51,3.66,3.66,0,0,0-1.37,1.39,4.25,4.25,0,0,0,0,4A3.63,3.63,0,0,0,114.15,19,3.85,3.85,0,0,0,116.14,19.48Z"
                transform="translate(-1.01 -2.04)" />
            <path class="cls-1"
                d="M126.6,23.29V8.77h3.32v2.86l-.27-.51a3.82,3.82,0,0,1,1.67-2A5.29,5.29,0,0,1,134,8.45a5.77,5.77,0,0,1,2.84.69,5,5,0,0,1,1.94,1.94A5.83,5.83,0,0,1,139.5,14v9.34H136V14.78a3.48,3.48,0,0,0-.37-1.66,2.68,2.68,0,0,0-1-1.07,3.17,3.17,0,0,0-1.52-.37,3.21,3.21,0,0,0-1.53.37,2.68,2.68,0,0,0-1,1.07,3.48,3.48,0,0,0-.37,1.66v8.51Z"
                transform="translate(-1.01 -2.04)" />
            <path class="cls-1"
                d="M148,23.61a7.26,7.26,0,0,1-4-1.1,5.73,5.73,0,0,1-2.39-3l2.64-1.25a4.52,4.52,0,0,0,1.56,1.92,3.85,3.85,0,0,0,2.23.7,2.47,2.47,0,0,0,1.5-.43,1.36,1.36,0,0,0,.56-1.12,1.1,1.1,0,0,0-.23-.71,1.82,1.82,0,0,0-.6-.48,4.53,4.53,0,0,0-.86-.34L146,17.13a5.52,5.52,0,0,1-2.77-1.62,3.87,3.87,0,0,1-.94-2.6,4,4,0,0,1,.68-2.34A4.5,4.5,0,0,1,144.85,9a7.18,7.18,0,0,1,6.42.43,5.46,5.46,0,0,1,2.25,2.77l-2.67,1.26a3.13,3.13,0,0,0-1.26-1.56,3.55,3.55,0,0,0-2-.58,2.23,2.23,0,0,0-1.39.39,1.26,1.26,0,0,0-.51,1.06,1.08,1.08,0,0,0,.21.66,1.56,1.56,0,0,0,.61.48,5.9,5.9,0,0,0,.89.35l2.32.69a6,6,0,0,1,2.77,1.61,3.72,3.72,0,0,1,1,2.61,3.94,3.94,0,0,1-.69,2.31,4.61,4.61,0,0,1-1.93,1.56A6.79,6.79,0,0,1,148,23.61Z"
                transform="translate(-1.01 -2.04)" />
            <path class="cls-1"
                d="M155.58,6.3a.6.6,0,0,1-.44-.15.57.57,0,0,1-.16-.44V5h-.28V4.62h0a.25.25,0,0,0,.19-.07.24.24,0,0,0,.06-.18V4.24h.41v.38h.38V5h-.38v.71a.29.29,0,0,0,0,.14.16.16,0,0,0,.09.09.35.35,0,0,0,.16,0h.11v.35h-.2Z"
                transform="translate(-1.01 -2.04)" />
            <path class="cls-1"
                d="M156.08,6.29V4.62h.38V5l0-.06a.44.44,0,0,1,.18-.27.58.58,0,0,1,.33-.09.66.66,0,0,1,.36.11.47.47,0,0,1,.2.28h-.11a.58.58,0,0,1,.23-.3.6.6,0,0,1,.35-.1.69.69,0,0,1,.32.08.66.66,0,0,1,.22.22.73.73,0,0,1,.08.33V6.29h-.41v-1a.36.36,0,0,0,0-.19A.24.24,0,0,0,158,5a.43.43,0,0,0-.17,0,.47.47,0,0,0-.17,0,.28.28,0,0,0-.11.13.36.36,0,0,0,0,.19v1h-.4v-1a.49.49,0,0,0,0-.19A.36.36,0,0,0,157,5a.47.47,0,0,0-.17,0,.43.43,0,0,0-.17,0,.3.3,0,0,0-.12.13.49.49,0,0,0,0,.19v1Z"
                transform="translate(-1.01 -2.04)" />
            <path class="cls-1"
                d="M156.64,8.5a3.23,3.23,0,1,1,3.23-3.23A3.23,3.23,0,0,1,156.64,8.5Zm0-6.2a3,3,0,1,0,3,3A3,3,0,0,0,156.64,2.3Z"
                transform="translate(-1.01 -2.04)" />
        </g>
    </g>
</svg>